<svg width="27" height="38" viewBox="0 0 27 38" fill="none" xmlns="http://www.w3.org/2000/svg">
<rect x="1" width="25" height="38" fill="#FFB640"/>
<rect x="1" y="2" width="25" height="34" fill="#103B15"/>
<rect x="2" y="3" width="23" height="32" fill="#377734"/>
<path d="M12.8066 3.6672C13.1938 3.29464 13.8062 3.29464 14.1934 3.6672L23.4033 12.5294C24.0519 13.1536 23.6101 14.25 22.7099 14.25H4.29011C3.3899 14.25 2.94806 13.1536 3.59673 12.5294L12.8066 3.6672Z" fill="#103B15"/>
<rect x="3" y="12" width="21" height="22" rx="2" fill="#103B15"/>
<rect x="4" y="13" width="19" height="20" rx="1" fill="#377734"/>
<path d="M12.8308 5.60276C13.2112 5.26016 13.7889 5.26016 14.1692 5.60276L22.39 13.007C23.0709 13.6202 22.6371 14.75 21.7208 14.75H5.27921C4.3629 14.75 3.92911 13.6202 4.60997 13.007L12.8308 5.60276Z" fill="#377734"/>
</svg>
